<?xml version="1.0" encoding="UTF-8"?><svg id="artwork" xmlns="http://www.w3.org/2000/svg" xmlns:xlink="http://www.w3.org/1999/xlink" viewBox="0 0 450 400"><defs><style>.cls-1,.cls-2,.cls-3,.cls-4,.cls-5,.cls-6,.cls-7,.cls-8,.cls-9,.cls-10,.cls-11{fill:none;}.cls-2,.cls-3,.cls-4,.cls-5{stroke-linejoin:round;}.cls-2,.cls-3,.cls-4,.cls-5,.cls-7,.cls-8,.cls-9,.cls-10,.cls-11{stroke:#fff;}.cls-2,.cls-3,.cls-5,.cls-9,.cls-11{stroke-linecap:round;}.cls-3,.cls-7,.cls-11{stroke-width:.75px;}.cls-12{clip-path:url(#clippath);}.cls-13{opacity:.05;}.cls-14{fill:#f5f5f5;}.cls-15{fill:#fff;}.cls-16{fill:#f3704b;}.cls-17{fill:#999;}.cls-18{fill:#90d3d0;}.cls-19{fill:#b78451;}.cls-20{fill:#666;}.cls-21{fill:#d6a167;}.cls-22{fill:#1d9cd3;}.cls-23{fill:#1c6333;}.cls-24{fill:#0c5c8d;}.cls-25{fill:#949494;}.cls-26{fill:#4ec4ce;}.cls-27{fill:#4e43a4;}.cls-5{stroke-width:.92px;}.cls-28{clip-path:url(#clippath-1);}.cls-29{clip-path:url(#clippath-3);}.cls-30{clip-path:url(#clippath-2);}.cls-6{stroke:#949494;stroke-width:.36px;}.cls-6,.cls-31,.cls-7,.cls-32,.cls-33,.cls-34,.cls-8,.cls-9,.cls-10,.cls-11{stroke-miterlimit:10;}.cls-31{fill:#62c026;stroke:#62c026;stroke-width:.97px;}.cls-32{fill:#7cc0eb;stroke:#7cc0eb;}.cls-33{fill:#786ccd;stroke:#786ccd;}.cls-34{fill:#f8a68f;stroke:#f8a68f;}.cls-35{opacity:.35;}.cls-9{stroke-dasharray:0 0 .01 5.1;stroke-width:1.77px;}.cls-10{stroke-width:.96px;}</style><clipPath id="clippath"><rect class="cls-1" x="244.73" y="41.83" width="60.39" height="73.18"/></clipPath><clipPath id="clippath-1"><rect class="cls-1" x="244.73" y="123.28" width="60.39" height="73.18"/></clipPath><clipPath id="clippath-2"><rect class="cls-1" x="323.37" y="163.85" width="60.39" height="73.18"/></clipPath><clipPath id="clippath-3"><rect class="cls-1" x="244.73" y="204.73" width="60.39" height="73.18"/></clipPath></defs><g><g id="Your_Icon"><path class="cls-35" d="M148.99,250.41c.05,.03,.1,.07,.16,.1,.51-.34,.9-.72,1.46-1.04,17.65-10.19,46.35-10.14,64.11,.12,8.53,4.93,12.88,11.32,13.25,17.75,.29-.18,.55-.37,.85-.54,29.27-16.9,76.89-16.82,106.36,.2,29.46,17.01,29.61,44.51,.34,61.4-1.25,.72-2.58,1.38-3.9,2.04,7.94,1.67,15.4,4.31,21.77,7.99,23.26,13.43,22.08,35.88-1.03,49.22-23.11,13.34-61.98,14.02-85.24,.59l-178.42-103.01c-16.04-9.26-14.84-24.98,1.1-34.18,15.94-9.2,43.16-9.9,59.2-.64Z"/></g><path class="cls-17" d="M367.53,317.88l-7,5.51c-2.05-1.78-4.43-3.47-7.14-5.04-6.37-3.68-13.84-6.32-21.77-7.99,1.32-.66,2.65-1.31,3.9-2.04,9.61-5.55,16.05-12.24,19.32-19.32h0c7.88-13.79,1.64-32.52,1.64-32.52l-4.46,5.18c-3.7-5.36-9.31-10.4-16.84-14.74-29.47-17.01-77.09-17.1-106.36-.2-.3,.17-.56,.37-.85,.54-.36-6.44-4.71-12.83-13.25-17.75-17.76-10.25-46.46-10.31-64.11-.12-.56,.32-.95,.7-1.46,1.04-.06-.03-.1-.07-.16-.1-16.04-9.26-43.26-8.57-59.2,.64-1.81,1.05-3.43,2.18-4.86,3.37l-6.96-4.88s-7.83,24.76,8.79,34.49c.61,.41,1.25,.81,1.93,1.2l178.42,103.01c23.26,13.43,62.13,12.75,85.24-.59,8.53-4.93,14.07-11.09,16.5-17.59h0c7.58-19.3-1.32-32.1-1.32-32.1Z"/><g id="Your_Icon-2"><path class="cls-14" d="M148.99,215.71c.05,.03,.1,.07,.16,.1,.51-.34,.9-.72,1.46-1.04,17.65-10.19,46.35-10.14,64.11,.12,8.53,4.93,12.88,11.32,13.25,17.75,.29-.18,.55-.37,.85-.54,29.27-16.9,76.89-16.82,106.36,.2,29.46,17.01,29.61,44.51,.34,61.4-1.25,.72-2.58,1.38-3.9,2.04,7.94,1.67,15.4,4.31,21.77,7.99,23.26,13.43,22.08,35.88-1.03,49.22-23.11,13.34-61.98,14.02-85.24,.59L88.69,250.53c-16.04-9.26-14.84-24.98,1.1-34.18,15.94-9.2,43.16-9.9,59.2-.64Z"/></g></g><g><g><path class="cls-27" d="M244.72,82.14c-.02,6.17,4.8,13.68,10.77,16.78l28.43,14.76c3.19,1.66,6.05,1.7,8.04,.45-.12,.07-.23,.16-.35,.22l5.49-2.3c1.94-1.01,3.14-3.17,3.15-6.23l.09-29.38c.02-6.17-4.8-13.68-10.77-16.78l-28.43-14.76c-3-1.56-5.72-1.7-7.69-.68l-5.49,2.3s.01,0,.02,0c-1.95,1.01-3.16,3.17-3.17,6.24l-.09,29.38Zm3.67-35.8c.12-.05,.24-.11,.36-.15-.12,.04-.24,.1-.36,.15m.81-.27c.13-.03,.26-.07,.39-.1-.13,.02-.26,.06-.39,.1m.88-.15c.14-.01,.27-.04,.41-.05-.14,0-.27,.03-.41,.05m44.68,62.21c0,.38-.02,.75-.06,1.11,.04-.36,.06-.73,.06-1.11m-.11,1.43c-.03,.24-.06,.48-.11,.7,.05-.22,.08-.46,.11-.7m-.22,1.06c-.05,.19-.1,.39-.16,.57,.06-.18,.11-.38,.16-.57m-.32,.92c-.07,.16-.13,.33-.21,.48,.08-.15,.14-.32,.21-.48m-.41,.81c-.08,.14-.16,.28-.26,.41,.09-.13,.17-.27,.26-.41m-.5,.7c-.1,.12-.19,.24-.3,.35,.11-.11,.2-.23,.3-.35m-.58,.6c-.11,.1-.22,.2-.34,.29,.12-.09,.22-.19,.34-.29m-47.29-60.62c0-.37,.02-.72,.06-1.06,.11-1.02,.37-1.91,.76-2.66,.52-1,1.28-1.76,2.22-2.24h0c.47-.24,.98-.41,1.53-.51,.25-.04,.5-.07,.76-.08,.08,0,.16,0,.23,0,.2,0,.4,0,.6,.01,.08,0,.16,0,.24,.02,.56,.05,1.14,.16,1.74,.34,.09,.03,.18,.06,.27,.09,.23,.07,.45,.16,.68,.25,.09,.04,.18,.07,.28,.11,.31,.13,.63,.28,.95,.44l28.43,14.76c.32,.16,.63,.35,.94,.54,.07,.04,.13,.08,.2,.12,.3,.19,.6,.39,.89,.6,.05,.03,.1,.07,.15,.11,.27,.2,.53,.4,.79,.62,.04,.04,.09,.07,.14,.11,.28,.24,.55,.48,.82,.74,.06,.06,.11,.11,.17,.17,.27,.26,.54,.54,.8,.82,.39,.42,.75,.86,1.11,1.32,.09,.11,.17,.23,.26,.34,.35,.46,.68,.93,.99,1.41,.36,.55,.68,1.12,.97,1.7,.09,.18,.19,.35,.28,.53,.19,.38,.36,.76,.51,1.15,.05,.13,.09,.26,.14,.39,.21,.54,.39,1.08,.54,1.62,.03,.1,.06,.21,.09,.31,.1,.39,.18,.77,.25,1.15,.01,.05,.01,.09,.02,.14,.12,.7,.18,1.39,.18,2.07,0,.02,0,.03,0,.05l-.09,29.38s0,.05,0,.07c0,.34-.02,.67-.05,.98-.02,.22-.07,.43-.11,.64-.02,.11-.03,.23-.05,.33-.42,1.86-1.42,3.2-2.82,3.92-.23,.12-.48,.22-.73,.31-.51,.17-1.06,.27-1.64,.29-.58,.02-1.2-.02-1.85-.15-.97-.19-2-.56-3.06-1.11l-28.43-14.76c-.71-.37-1.4-.8-2.07-1.29-.67-.49-1.32-1.03-1.93-1.62-.31-.29-.61-.6-.9-.91-.58-.63-1.13-1.3-1.64-2-.25-.35-.5-.71-.73-1.07-1.86-2.89-3-6.15-2.99-9.09l.09-29.38Z"/><rect class="cls-1" x="244.73" y="41.83" width="60.39" height="73.18"/><g class="cls-12"><path class="cls-33" d="M245.37,51.96c.11-1.02,.37-1.91,.76-2.66,.52-1,1.28-1.76,2.22-2.24,.68-.35,1.45-.54,2.29-.59,.08,0,.16,0,.23,0,.2,0,.4,0,.6,.01,.08,0,.16,0,.24,.02,.56,.05,1.14,.17,1.74,.34,.09,.03,.18,.06,.27,.09,.23,.07,.45,.16,.68,.25,.09,.04,.18,.07,.27,.11,.31,.13,.63,.28,.95,.44l28.43,14.76c.32,.16,.63,.35,.94,.54,.07,.04,.13,.08,.2,.12,.3,.19,.6,.39,.89,.6,.05,.03,.1,.07,.15,.11,.27,.2,.53,.4,.79,.62,.05,.04,.09,.08,.14,.12,.28,.24,.55,.48,.82,.74,.06,.06,.11,.11,.17,.17,.27,.27,.54,.54,.8,.82,.39,.42,.76,.86,1.11,1.32,.09,.11,.17,.22,.26,.34,.35,.46,.68,.93,.99,1.41,.35,.55,.67,1.12,.97,1.7,.35,.68,.67,1.37,.93,2.06,.21,.54,.39,1.08,.54,1.62,.15,.53,.27,1.07,.36,1.6,.12,.7,.18,1.39,.18,2.07,0,.01,0,.03,0,.04l-.09,29.38s0,.05,0,.08c0,.34-.02,.67-.05,.98-.02,.22-.07,.43-.1,.64-.02,.11-.03,.23-.06,.33-.42,1.86-1.42,3.2-2.82,3.92h0c-.23,.12-.48,.22-.73,.31-.51,.17-1.06,.27-1.64,.29-.59,.02-1.2-.02-1.85-.15-.97-.19-2-.56-3.06-1.11l-28.43-14.76c-.71-.37-1.4-.8-2.07-1.29-.67-.49-1.32-1.03-1.93-1.62-.31-.29-.61-.6-.9-.91-.58-.63-1.13-1.3-1.64-2-.25-.35-.5-.71-.73-1.07-1.86-2.89-3-6.15-2.99-9.08l.09-29.38c0-.37,.02-.72,.06-1.06"/></g></g><g><path class="cls-22" d="M244.72,163.59c-.02,6.17,4.8,13.68,10.77,16.78l28.43,14.76c3.19,1.66,6.05,1.7,8.04,.45-.12,.07-.23,.16-.35,.22l5.49-2.3c1.94-1.01,3.14-3.17,3.15-6.23l.09-29.38c.02-6.17-4.8-13.68-10.77-16.78l-28.43-14.76c-3-1.56-5.72-1.7-7.69-.68l-5.49,2.3s.01,0,.02,0c-1.95,1.01-3.16,3.17-3.17,6.24l-.09,29.38Zm3.67-35.8c.12-.05,.24-.11,.36-.15-.12,.04-.24,.1-.36,.15m.81-.27c.13-.03,.26-.07,.39-.1-.13,.02-.26,.06-.39,.1m.88-.15c.14-.01,.27-.04,.41-.05-.14,0-.27,.03-.41,.05m44.68,62.21c0,.38-.02,.75-.06,1.11,.04-.36,.06-.73,.06-1.11m-.11,1.43c-.03,.24-.06,.48-.11,.7,.05-.22,.08-.46,.11-.7m-.22,1.06c-.05,.19-.1,.39-.16,.57,.06-.18,.11-.38,.16-.57m-.32,.92c-.07,.16-.13,.33-.21,.48,.08-.15,.14-.32,.21-.48m-.41,.81c-.08,.14-.16,.28-.26,.41,.09-.13,.17-.27,.26-.41m-.5,.7c-.1,.12-.19,.24-.3,.35,.11-.11,.2-.23,.3-.35m-.58,.6c-.11,.1-.22,.2-.34,.29,.12-.09,.22-.19,.34-.29m-47.29-60.62c0-.37,.02-.72,.06-1.06,.11-1.02,.37-1.91,.76-2.66,.52-1,1.28-1.76,2.22-2.24h0c.47-.24,.98-.41,1.53-.51,.25-.04,.5-.07,.76-.08,.08,0,.16,0,.23,0,.2,0,.4,0,.6,.01,.08,0,.16,0,.24,.02,.56,.05,1.14,.16,1.74,.34,.09,.03,.18,.06,.27,.09,.23,.07,.45,.16,.68,.25,.09,.04,.18,.07,.28,.11,.31,.13,.63,.28,.95,.44l28.43,14.76c.32,.16,.63,.35,.94,.54,.07,.04,.13,.08,.2,.12,.3,.19,.6,.39,.89,.6,.05,.03,.1,.07,.15,.11,.27,.2,.53,.4,.79,.62,.04,.04,.09,.07,.14,.11,.28,.24,.55,.48,.82,.74,.06,.06,.11,.11,.17,.17,.27,.26,.54,.54,.8,.82,.39,.42,.75,.86,1.11,1.32,.09,.11,.17,.23,.26,.34,.35,.46,.68,.93,.99,1.41,.36,.55,.68,1.12,.97,1.7,.09,.18,.19,.35,.28,.53,.19,.38,.36,.76,.51,1.15,.05,.13,.09,.26,.14,.39,.21,.54,.39,1.08,.54,1.62,.03,.1,.06,.21,.09,.31,.1,.39,.18,.77,.25,1.15,.01,.05,.01,.09,.02,.14,.12,.7,.18,1.39,.18,2.07,0,.02,0,.03,0,.05l-.09,29.38s0,.05,0,.07c0,.34-.02,.67-.05,.98-.02,.22-.07,.43-.11,.64-.02,.11-.03,.23-.05,.33-.42,1.86-1.42,3.2-2.82,3.92-.23,.12-.48,.22-.73,.31-.51,.17-1.06,.27-1.64,.29-.58,.02-1.2-.02-1.85-.15-.97-.19-2-.56-3.06-1.11l-28.43-14.76c-.71-.37-1.4-.8-2.07-1.29-.67-.49-1.32-1.03-1.93-1.62-.31-.29-.61-.6-.9-.91-.58-.63-1.13-1.3-1.64-2-.25-.35-.5-.71-.73-1.07-1.86-2.89-3-6.15-2.99-9.09l.09-29.38Z"/><rect class="cls-1" x="244.73" y="123.28" width="60.39" height="73.18"/><g class="cls-28"><path class="cls-32" d="M245.37,133.42c.11-1.02,.37-1.91,.76-2.66,.52-1,1.28-1.76,2.22-2.24,.68-.35,1.45-.54,2.29-.59,.08,0,.16,0,.23,0,.2,0,.4,0,.6,.01,.08,0,.16,0,.24,.02,.56,.05,1.14,.17,1.74,.34,.09,.03,.18,.06,.27,.09,.23,.07,.45,.16,.68,.25,.09,.04,.18,.07,.27,.11,.31,.13,.63,.28,.95,.44l28.43,14.76c.32,.16,.63,.35,.94,.54,.07,.04,.13,.08,.2,.12,.3,.19,.6,.39,.89,.6,.05,.03,.1,.07,.15,.11,.27,.2,.53,.4,.79,.62,.05,.04,.09,.08,.14,.12,.28,.24,.55,.48,.82,.74,.06,.06,.11,.11,.17,.17,.27,.27,.54,.54,.8,.82,.39,.42,.76,.86,1.11,1.32,.09,.11,.17,.22,.26,.34,.35,.46,.68,.93,.99,1.41,.35,.55,.67,1.12,.97,1.7,.35,.68,.67,1.37,.93,2.06,.21,.54,.39,1.08,.54,1.62,.15,.53,.27,1.07,.36,1.6,.12,.7,.18,1.39,.18,2.07,0,.01,0,.03,0,.04l-.09,29.38s0,.05,0,.08c0,.34-.02,.67-.05,.98-.02,.22-.07,.43-.1,.64-.02,.11-.03,.23-.06,.33-.42,1.86-1.42,3.2-2.82,3.92h0c-.23,.12-.48,.22-.73,.31-.51,.17-1.06,.27-1.64,.29-.59,.02-1.2-.02-1.85-.15-.97-.19-2-.56-3.06-1.11l-28.43-14.76c-.71-.37-1.4-.8-2.07-1.29-.67-.49-1.32-1.03-1.93-1.62-.31-.29-.61-.6-.9-.91-.58-.63-1.13-1.3-1.64-2-.25-.35-.5-.71-.73-1.07-1.86-2.89-3-6.15-2.99-9.08l.09-29.38c0-.37,.02-.72,.06-1.06"/></g></g><g><path class="cls-16" d="M323.36,204.16c-.02,6.17,4.8,13.68,10.77,16.78l28.43,14.76c3.19,1.66,6.05,1.7,8.04,.45-.12,.07-.23,.16-.35,.22l5.49-2.3c1.94-1.01,3.14-3.17,3.15-6.23l.09-29.38c.02-6.17-4.8-13.68-10.77-16.78l-28.43-14.76c-3-1.56-5.72-1.7-7.69-.68l-5.49,2.3s.01,0,.02,0c-1.95,1.01-3.16,3.17-3.17,6.24l-.09,29.38Zm3.67-35.8c.12-.05,.24-.11,.36-.15-.12,.04-.24,.1-.36,.15m.81-.27c.13-.03,.26-.07,.39-.1-.13,.02-.26,.06-.39,.1m.88-.15c.14-.01,.27-.04,.41-.05-.14,0-.27,.03-.41,.05m44.68,62.21c0,.38-.02,.75-.06,1.11,.04-.36,.06-.73,.06-1.11m-.11,1.43c-.03,.24-.06,.48-.11,.7,.05-.22,.08-.46,.11-.7m-.22,1.06c-.05,.19-.1,.39-.16,.57,.06-.18,.11-.38,.16-.57m-.32,.92c-.07,.16-.13,.33-.21,.48,.08-.15,.14-.32,.21-.48m-.41,.81c-.08,.14-.16,.28-.26,.41,.09-.13,.17-.27,.26-.41m-.5,.7c-.1,.12-.19,.24-.3,.35,.11-.11,.2-.23,.3-.35m-.58,.6c-.11,.1-.22,.2-.34,.29,.12-.09,.22-.19,.34-.29m-47.29-60.62c0-.37,.02-.72,.06-1.06,.11-1.02,.37-1.91,.76-2.66,.52-1,1.28-1.76,2.22-2.24h0c.47-.24,.98-.41,1.53-.51,.25-.04,.5-.07,.76-.08,.08,0,.16,0,.23,0,.2,0,.4,0,.6,.01,.08,0,.16,0,.24,.02,.56,.05,1.14,.16,1.74,.34,.09,.03,.18,.06,.27,.09,.23,.07,.45,.16,.68,.25,.09,.04,.18,.07,.28,.11,.31,.13,.63,.28,.95,.44l28.43,14.76c.32,.16,.63,.35,.94,.54,.07,.04,.13,.08,.2,.12,.3,.19,.6,.39,.89,.6,.05,.03,.1,.07,.15,.11,.27,.2,.53,.4,.79,.62,.04,.04,.09,.07,.14,.11,.28,.24,.55,.48,.82,.74,.06,.06,.11,.11,.17,.17,.27,.26,.54,.54,.8,.82,.39,.42,.75,.86,1.11,1.32,.09,.11,.17,.23,.26,.34,.35,.46,.68,.93,.99,1.41,.36,.55,.68,1.12,.97,1.7,.09,.18,.19,.35,.28,.53,.19,.38,.36,.76,.51,1.15,.05,.13,.09,.26,.14,.39,.21,.54,.39,1.08,.54,1.62,.03,.1,.06,.21,.09,.31,.1,.39,.18,.77,.25,1.15,.01,.05,.01,.09,.02,.14,.12,.7,.18,1.39,.18,2.07,0,.02,0,.03,0,.05l-.09,29.38s0,.05,0,.07c0,.34-.02,.67-.05,.98-.02,.22-.07,.43-.11,.64-.02,.11-.03,.23-.05,.33-.42,1.86-1.42,3.2-2.82,3.92-.23,.12-.48,.22-.73,.31-.51,.17-1.06,.27-1.64,.29-.58,.02-1.2-.02-1.85-.15-.97-.19-2-.56-3.06-1.11l-28.43-14.76c-.71-.37-1.4-.8-2.07-1.29-.67-.49-1.32-1.03-1.93-1.62-.31-.29-.61-.6-.9-.91-.58-.63-1.13-1.3-1.64-2-.25-.35-.5-.71-.73-1.07-1.86-2.89-3-6.15-2.99-9.09l.09-29.38Z"/><rect class="cls-1" x="323.37" y="163.85" width="60.39" height="73.18"/><g class="cls-30"><path class="cls-34" d="M324.01,173.98c.11-1.02,.37-1.91,.76-2.66,.52-1,1.28-1.76,2.22-2.24,.68-.35,1.45-.54,2.29-.59,.08,0,.16,0,.23,0,.2,0,.4,0,.6,.01,.08,0,.16,0,.24,.02,.56,.05,1.14,.17,1.74,.34,.09,.03,.18,.06,.27,.09,.23,.07,.45,.16,.68,.25,.09,.04,.18,.07,.27,.11,.31,.13,.63,.28,.95,.44l28.43,14.76c.32,.16,.63,.35,.94,.54,.07,.04,.13,.08,.2,.12,.3,.19,.6,.39,.89,.6,.05,.03,.1,.07,.15,.11,.27,.2,.53,.4,.79,.62,.05,.04,.09,.08,.14,.12,.28,.24,.55,.48,.82,.74,.06,.06,.11,.11,.17,.17,.27,.27,.54,.54,.8,.82,.39,.42,.76,.86,1.11,1.32,.09,.11,.17,.22,.26,.34,.35,.46,.68,.93,.99,1.41,.35,.55,.67,1.12,.97,1.7,.35,.68,.67,1.37,.93,2.06,.21,.54,.39,1.08,.54,1.62,.15,.53,.27,1.07,.36,1.6,.12,.7,.18,1.39,.18,2.07,0,.01,0,.03,0,.04l-.09,29.38s0,.05,0,.08c0,.34-.02,.67-.05,.98-.02,.22-.07,.43-.1,.64-.02,.11-.03,.23-.06,.33-.42,1.86-1.42,3.2-2.82,3.92h0c-.23,.12-.48,.22-.73,.31-.51,.17-1.06,.27-1.64,.29-.59,.02-1.2-.02-1.85-.15-.97-.19-2-.56-3.06-1.11l-28.43-14.76c-.71-.37-1.4-.8-2.07-1.29-.67-.49-1.32-1.03-1.93-1.62-.31-.29-.61-.6-.9-.91-.58-.63-1.13-1.3-1.64-2-.25-.35-.5-.71-.73-1.07-1.86-2.89-3-6.15-2.99-9.08l.09-29.38c0-.37,.02-.72,.06-1.06"/></g></g><g><path class="cls-23" d="M244.72,245.05c-.02,6.17,4.8,13.68,10.77,16.78l28.43,14.76c3.19,1.66,6.05,1.7,8.04,.45-.12,.07-.23,.16-.35,.22l5.49-2.3c1.94-1.01,3.14-3.17,3.15-6.23l.09-29.38c.02-6.17-4.8-13.68-10.77-16.78l-28.43-14.76c-3-1.56-5.72-1.7-7.69-.68l-5.49,2.3s.01,0,.02,0c-1.95,1.01-3.16,3.17-3.17,6.24l-.09,29.38Zm3.67-35.8c.12-.05,.24-.11,.36-.15-.12,.04-.24,.1-.36,.15m.81-.27c.13-.03,.26-.07,.39-.1-.13,.02-.26,.06-.39,.1m.88-.15c.14-.01,.27-.04,.41-.05-.14,0-.27,.03-.41,.05m44.68,62.21c0,.38-.02,.75-.06,1.11,.04-.36,.06-.73,.06-1.11m-.11,1.43c-.03,.24-.06,.48-.11,.7,.05-.22,.08-.46,.11-.7m-.22,1.06c-.05,.19-.1,.39-.16,.57,.06-.18,.11-.38,.16-.57m-.32,.92c-.07,.16-.13,.33-.21,.48,.08-.15,.14-.32,.21-.48m-.41,.81c-.08,.14-.16,.28-.26,.41,.09-.13,.17-.27,.26-.41m-.5,.7c-.1,.12-.19,.24-.3,.35,.11-.11,.2-.23,.3-.35m-.58,.6c-.11,.1-.22,.2-.34,.29,.12-.09,.22-.19,.34-.29m-47.29-60.62c0-.37,.02-.72,.06-1.06,.11-1.02,.37-1.91,.76-2.66,.52-1,1.28-1.76,2.22-2.24h0c.47-.24,.98-.41,1.53-.51,.25-.04,.5-.07,.76-.08,.08,0,.16,0,.23,0,.2,0,.4,0,.6,.01,.08,0,.16,0,.24,.02,.56,.05,1.14,.16,1.74,.34,.09,.03,.18,.06,.27,.09,.23,.07,.45,.16,.68,.25,.09,.04,.18,.07,.28,.11,.31,.13,.63,.28,.95,.44l28.43,14.76c.32,.16,.63,.35,.94,.54,.07,.04,.13,.08,.2,.12,.3,.19,.6,.39,.89,.6,.05,.03,.1,.07,.15,.11,.27,.2,.53,.4,.79,.62,.04,.04,.09,.07,.14,.11,.28,.24,.55,.48,.82,.74,.06,.06,.11,.11,.17,.17,.27,.26,.54,.54,.8,.82,.39,.42,.75,.86,1.11,1.32,.09,.11,.17,.23,.26,.34,.35,.46,.68,.93,.99,1.41,.36,.55,.68,1.12,.97,1.7,.09,.18,.19,.35,.28,.53,.19,.38,.36,.76,.51,1.15,.05,.13,.09,.26,.14,.39,.21,.54,.39,1.08,.54,1.62,.03,.1,.06,.21,.09,.31,.1,.39,.18,.77,.25,1.15,.01,.05,.01,.09,.02,.14,.12,.7,.18,1.39,.18,2.07,0,.02,0,.03,0,.05l-.09,29.38s0,.05,0,.07c0,.34-.02,.67-.05,.98-.02,.22-.07,.43-.11,.64-.02,.11-.03,.23-.05,.33-.42,1.86-1.42,3.2-2.82,3.92-.23,.12-.48,.22-.73,.31-.51,.17-1.06,.27-1.64,.29-.58,.02-1.2-.02-1.85-.15-.97-.19-2-.56-3.06-1.11l-28.43-14.76c-.71-.37-1.4-.8-2.07-1.29-.67-.49-1.32-1.03-1.93-1.62-.31-.29-.61-.6-.9-.91-.58-.63-1.13-1.3-1.64-2-.25-.35-.5-.71-.73-1.07-1.86-2.89-3-6.15-2.99-9.09l.09-29.38Z"/><rect class="cls-1" x="244.73" y="204.73" width="60.39" height="73.18"/><g class="cls-29"><path class="cls-31" d="M245.37,214.87c.11-1.02,.37-1.91,.76-2.66,.52-1,1.28-1.76,2.22-2.24,.68-.35,1.45-.54,2.29-.59,.08,0,.16,0,.23,0,.2,0,.4,0,.6,.01,.08,0,.16,0,.24,.02,.56,.05,1.14,.17,1.74,.34,.09,.03,.18,.06,.27,.09,.23,.07,.45,.16,.68,.25,.09,.04,.18,.07,.27,.11,.31,.13,.63,.28,.95,.44l28.43,14.76c.32,.16,.63,.35,.94,.54,.07,.04,.13,.08,.2,.12,.3,.19,.6,.39,.89,.6,.05,.03,.1,.07,.15,.11,.27,.2,.53,.4,.79,.62,.05,.04,.09,.08,.14,.12,.28,.24,.55,.48,.82,.74,.06,.06,.11,.11,.17,.17,.27,.27,.54,.54,.8,.82,.39,.42,.76,.86,1.11,1.32,.09,.11,.17,.22,.26,.34,.35,.46,.68,.93,.99,1.41,.35,.55,.67,1.12,.97,1.7,.35,.68,.67,1.37,.93,2.06,.21,.54,.39,1.08,.54,1.62,.15,.53,.27,1.07,.36,1.6,.12,.7,.18,1.39,.18,2.07,0,.01,0,.03,0,.04l-.09,29.38s0,.05,0,.08c0,.34-.02,.67-.05,.98-.02,.22-.07,.43-.1,.64-.02,.11-.03,.23-.06,.33-.42,1.86-1.42,3.2-2.82,3.92h0c-.23,.12-.48,.22-.73,.31-.51,.17-1.06,.27-1.64,.29-.59,.02-1.2-.02-1.85-.15-.97-.19-2-.56-3.06-1.11l-28.43-14.76c-.71-.37-1.4-.8-2.07-1.29-.67-.49-1.32-1.03-1.93-1.62-.31-.29-.61-.6-.9-.91-.58-.63-1.13-1.3-1.64-2-.25-.35-.5-.71-.73-1.07-1.86-2.89-3-6.15-2.99-9.08l.09-29.38c0-.37,.02-.72,.06-1.06"/></g></g><g><ellipse class="cls-13" cx="191.53" cy="284.18" rx="8.19" ry="26.88" transform="translate(-100.33 463.79) rotate(-87.63)"/><ellipse class="cls-13" cx="192.57" cy="273.78" rx="7.26" ry="25.93" transform="translate(-88.94 454.86) rotate(-87.63)"/><g><path class="cls-20" d="M169.61,260.74s-2.92,17.78,3.18,17.32l8.09,.13s2.16-2.11,7.28-.83c0,0,27.84,2.08,28.07-4.81,0,0,.71-6.56-8.73-4.92,0,0-13.9-4.18-17.18-9.64l-20.7,2.73Z"/><path class="cls-25" d="M215.9,271.02s-2.22,6.27-14.43,5.06l-16.11-.74c-.3-.01-.6,0-.9,.07-2.11,.41-11.47,2-15.09-1.05,0,0,.31,4.45,5.75,3.71,0,0,6.14,.98,9.86-.94l14.97,.56s18.29,.5,15.95-6.66Z"/><path class="cls-20" d="M160.8,150.43s1.41,10.34,5.76,15.3c2.08,2.38,2.81,5.59,2.38,8.72-.66,4.85-.2,10.72,1.28,18.31,1.03,5.26,.3,11.9-.71,17.16-1.6,8.35-2.84,21.2,2.2,29.56l18.12,25.14,2.54-4.39-12.87-54.06-2.14-32.93-11.11-19.88,.39-17.34-6.04-.39,.19,14.81Z"/><path class="cls-26" d="M161.67,108.71l-6.74-3.54c-2.96-1.56-4.51-4.91-3.77-8.18l6.91-30.35-.8,14.36s4.98,19.21,4.39,27.72Z"/><path class="cls-20" d="M169.1,267.62s-4.25,17.51,1.87,17.51l8.06,.74s2.32-1.95,7.32-.28c0,0,27.61,4.17,28.35-2.69,0,0,1.2-6.49-8.34-5.56,0,0-13.55-5.22-16.41-10.9l-20.85,1.17Z"/><path class="cls-17" d="M207.29,143.11l-.16,16.66c-.02,2-.31,4-.86,5.92l-17.48,60.81s-1.17,32.54,1.17,39.94c0,0-13.64,7.79-20.85,1.17l1.95-33.9,5.07-35.46-3.88-31.63s-10.52-17.38-6.84-17.86l.39-15,41.11,.58,.39,8.77Z"/><path class="cls-18" d="M189.73,138.88c-5.74,7.45-16.24,18.57-24.97,13.85-3.79-2.05-5.83-6.31-5.46-10.61,1.01-11.8,3.18-45.04-2.99-60.15,0,0-1.79-35.49,17.75-36.29l17.92,.71,6.67,6.48c3.82,2.8,5.05,4.55,6.79,7.96,3.31,6.5,3.31,33.51,3.31,33.51l.33,41.76c.03,3.56-4.09,5.55-6.86,3.32l-2.22-1.78c-3.18-2.55-7.78-1.98-10.26,1.25Z"/><path class="cls-26" d="M191.8,84.16l16.95,10.17,.33,41.76s-.49,8.75-9.08,1.54l-8.2-53.47Z"/><g><line class="cls-6" x1="198.31" y1="273.54" x2="195.34" y2="276.98"/><line class="cls-6" x1="193.09" y1="275.15" x2="194.19" y2="270.93"/><line class="cls-6" x1="194.55" y1="275.46" x2="196.64" y2="272.34"/><line class="cls-6" x1="190.49" y1="273.17" x2="192.1" y2="269.21"/><line class="cls-6" x1="188.09" y1="271.61" x2="191.01" y2="267.96"/></g><path class="cls-25" d="M214.86,282.09s-2.68,6.09-14.77,3.96l-16.01-1.95c-.3-.04-.6-.04-.9,0-2.14,.25-11.59,1.13-14.97-2.18,0,0-.03,4.46,5.45,4.13,0,0,6.05,1.44,9.9-.19l14.89,1.68s18.2,1.88,16.4-5.45Z"/><path class="cls-21" d="M199.13,46.77l3.34-2.22s20.38-3.58,6.79-30.51l-3.71,2.96-14.08,15.44-8.15,2.84,.12,5.56,15.69,5.93Z"/><path class="cls-26" d="M174.62,42.87l-.57,2.8,12.83,1.85c.39,.06,1.01,.18,1.74,.36,1.55,.37,3.05,.98,4.43,1.77l5.59,3.21,.07-5.23c.02-1.11-.64-2.11-1.67-2.54,0,0-8.49-4.06-11.82-4.62-3.33-.56-7.22-.26-7.22-.26-1.63-.06-3.07,1.07-3.39,2.67Z"/><polygon class="cls-19" points="193.48 31.03 202.47 44.55 201.39 45.29 191.67 35.73 193.39 34.65 193.48 31.03"/><path class="cls-24" d="M200.13,27.7l1.26,1.3c.63,.65,1.52,.98,2.42,.89h0c.22-.02,.4-.19,.43-.41,.3-2.27,2-14.14,5.4-15.23,0,0,3.43-3.05-4.45-7.3,0,0-7.24-6.61-10.5-.63,0,0-7.51-3.17-7.97,1.18,0,0-10.77-.27-8.06,9.69,0,0-4.8,8.24,2.99,14.03,0,0-3.71,5.52,1.18,6.07,0,0,13.95,.52,13.95-2.83,0,0-1.23-3.73-.97-5.43,.41-2.7,2.43-3.28,4.33-1.31Z"/><g><path class="cls-21" d="M254.48,87.03s3.38-5.68,5.02-3.78c.41,.48-.1,1.66-.97,3.02,.55-.27,1.12-.3,1.66,.06,0,0-.45,.88-1.09,1.91,.33-.03,.81,.26,1.13,.47,0,0-1.58,2.61-2.99,4.06-.46,.52-1.58,1.67-3.38,2.69-1.86,1.05-3.01,.93-8.6,2.27,0,0,0-.22,.03-.55-.96,.31-2.07,.08-2.79-.63l-.08-.08c-1.24-1.23-1.36-3.04-.29-4.35l.63-2.24c.15-.53,.52-.99,1.02-1.28l4.13-2.34s2.01-2.2,3.13-1.5c1.24,.78-1.76,2.81-1.76,2.81l-2.14,1.54c-.53,.51,1.31-.19,1.78,.36,.28,.33,.89,.15,.97,.19,.18,.1,4.61-2.65,4.61-2.65Z"/><polygon class="cls-19" points="250.31 92.39 256.47 89.33 258.42 86.22 258.64 86.33 256.66 89.5 250.43 92.59 250.31 92.39"/><path class="cls-19" d="M250.97,94.51l6.16-3.06c.7-1.15,1.81-3.01,1.84-3.22l.25,.02c-.02,.28-1.58,2.83-1.89,3.34l-.02,.03-6.22,3.09-.12-.19Z"/></g><path class="cls-18" d="M189.77,77.76l14.91,29.73c1.22,2.06,3.78,3.04,6.16,2.36l38.05-9.44c2.26-.65,3.1-3.43,1.57-5.22l-2.93-3.43c-1.31-1.53-3.35-2.2-5.31-1.74l-23.06,1.8c-2.46,.46-4.83-1.11-5.25-3.47-1.72-9.68-5.83-32.77-15.53-32.37l-8.59,21.78Z"/><path class="cls-21" d="M251,96.33l6.88-4.4s3.03-1.01,1.24,.92c0,0-5.91,5.46-7.98,4.86l-.14-1.38Z"/><path class="cls-19" d="M251.58,96.16l-.02-.25c2.92-.24,6.19-4.02,6.22-4.06l.19,.16c-.14,.16-3.37,3.9-6.39,4.15Z"/></g></g><line class="cls-9" x1="272.53" y1="112.55" x2="272.53" y2="129.96"/><line class="cls-9" x1="272.53" y1="193.79" x2="272.53" y2="211.19"/><line class="cls-9" x1="304.47" y1="177.14" x2="318.15" y2="184.14"/><g><path class="cls-20" d="M376.74,151.74l-19.24-11.14c-.55-.29-1.04-.29-1.41-.06h0s-2.31,1.14-2.31,1.14c0,0,.9,1.27,1.54,2.72l-.08,11.15c-.01,1.41,.93,3.05,2.08,3.66l16.77,9.81c1.01,1.57,1.9,2.49,1.9,2.49l1.25-.63,.77-.39c.51-.31,.66-.77,.66-1.6l.1-13.49c.01-1.41-.89-3.05-2.04-3.66Z"/><g><path class="cls-17" d="M375.36,153.81l-20.94-12.09c-.47-.27-.86-.06-.86,.48v15.7c0,.54,.39,1.21,.86,1.48l4.12,2.38v5.97s-.01,.32,.23,.66c.14,.2,.53,.63,.93,.52,.33-.09,.38-.1,.77-.32,1.03-.58,3.23-1.85,4.97-2.85l9.92,5.72c.47,.27,.86,.06,.86-.48v-15.7c0-.54-.39-1.21-.86-1.48Z"/><ellipse class="cls-15" cx="359.79" cy="153.65" rx="1.31" ry="2.28" transform="translate(-28.07 204.86) rotate(-30.65)"/><ellipse class="cls-15" cx="364.93" cy="156.61" rx="1.31" ry="2.28" transform="translate(-28.86 207.89) rotate(-30.65)"/><ellipse class="cls-15" cx="370.06" cy="159.57" rx="1.31" ry="2.28" transform="translate(-29.66 210.92) rotate(-30.65)"/></g></g><g><path class="cls-20" d="M333.87,82.11l-19.24-11.14c-.55-.29-1.04-.29-1.41-.06h0s-2.31,1.14-2.31,1.14c0,0,.9,1.27,1.54,2.72l-.08,11.15c-.01,1.41,.93,3.05,2.08,3.66l16.77,9.81c1.01,1.57,1.9,2.49,1.9,2.49l1.25-.63,.77-.39c.51-.31,.66-.77,.66-1.6l.1-13.49c.01-1.41-.89-3.05-2.04-3.66Z"/><path class="cls-17" d="M332.49,84.19l-20.94-12.09c-.47-.27-.86-.06-.86,.48v15.7c0,.54,.39,1.21,.86,1.48l4.12,2.38v5.97s-.01,.32,.23,.66c.14,.2,.53,.63,.93,.52,.33-.09,.38-.1,.77-.32,1.03-.58,3.23-1.85,4.97-2.85l9.92,5.72c.47,.27,.86,.06,.86-.48v-15.7c0-.54-.39-1.21-.86-1.48Z"/></g><g><polyline class="cls-3" points="318.49 81.43 312.61 82.1 318.49 89.57"/><polyline class="cls-3" points="325.55 93.64 331.43 92.97 325.55 85.5"/><line class="cls-3" x1="323.2" y1="84.15" x2="320.84" y2="90.92"/></g></g><g><g><polyline class="cls-5" points="276.43 93.3 276.43 100.53 263.15 92.87 263.15 85.64"/><polyline class="cls-5" points="263.15 67.56 263.15 60.27 276.43 67.93 276.43 75.22"/><g><line class="cls-5" x1="285.5" y1="84.71" x2="254.08" y2="66.58"/><g><line class="cls-5" x1="285.5" y1="84.71" x2="281.42" y2="77.69"/><line class="cls-5" x1="285.5" y1="84.71" x2="281.42" y2="87.04"/></g></g></g><g><line class="cls-5" x1="254.08" y1="76.09" x2="285.5" y2="94.22"/><g><line class="cls-5" x1="254.08" y1="76.09" x2="258.16" y2="73.76"/><line class="cls-5" x1="254.08" y1="76.09" x2="258.16" y2="83.12"/></g></g></g><g><path class="cls-10" d="M279.26,151.41l-20.23-11.68c-2.35-1.36-4.26,.08-4.26,3.22v21.63c0,3.14,1.91,6.78,4.26,8.14l20.23,11.68c2.35,1.36,4.26-.08,4.26-3.22v-21.63c0-3.14-1.91-6.78-4.26-8.14Z"/><line class="cls-10" x1="254.77" y1="146.13" x2="283.53" y2="162.74"/><g><ellipse class="cls-15" cx="260.31" cy="144.9" rx=".88" ry="1.52" transform="translate(-37.55 151.18) rotate(-30.31)"/><ellipse class="cls-15" cx="266.71" cy="148.6" rx=".88" ry="1.52" transform="translate(-38.54 154.92) rotate(-30.31)"/><ellipse class="cls-15" cx="263.51" cy="146.75" rx=".88" ry="1.52" transform="translate(-38.04 153.05) rotate(-30.31)"/></g></g><g><path class="cls-8" d="M261.55,232.55v-4.52c0-4.77,3.39-6.7,7.54-4.3,4.16,2.4,7.54,8.24,7.54,13.01v4.52"/><polygon class="cls-4" points="280.89 266.28 257.3 252.66 257.3 230.69 280.89 244.31 280.89 266.28"/><polyline class="cls-2" points="267.82 244.89 269.87 248.39 275.29 245.42"/><path class="cls-2" d="M273.39,250.94c-.61,1.81-2.38,2.35-4.47,1.14-2.6-1.5-4.7-5.13-4.7-8.11s2.11-4.18,4.7-2.68c.65,.37,1.27,.88,1.83,1.48"/><line class="cls-2" x1="268.92" y1="252.08" x2="268.92" y2="254.98"/></g><g><path class="cls-11" d="M343.02,185.94v-2.5c0-.26,.21-.49,.47-.51l4.43-.38c.26-.02,.61,.13,.77,.33l4.78,5.93c.16,.2,.3,.58,.3,.84v2.51"/><path class="cls-7" d="M353.76,189.18l-5.01,.43c-.23,.02-.51-.14-.73-.42l-5.01-6.21"/><line class="cls-7" x1="348.39" y1="189.51" x2="348.39" y2="193.2"/><path class="cls-11" d="M340.33,197.38l-5.08-6.29c-.16-.2-.3-.58-.3-.84v-6.17c0-.26,.21-.5,.47-.52l4.63-.48c.26-.03,.61,.11,.78,.31l2.18,2.56"/><path class="cls-7" d="M345.7,189.8l-5.01,.43c-.23,.02-.51-.14-.73-.42l-5.01-6.21"/><line class="cls-7" x1="340.33" y1="190.13" x2="340.33" y2="197.38"/><g><path class="cls-11" d="M340.33,211.62l-5.08-6.29c-.16-.2-.3-.58-.3-.84v-6.17c0-.26,.21-.49,.47-.51l4.9-.42"/><line class="cls-7" x1="343.02" y1="211.39" x2="340.33" y2="211.62"/></g><path class="cls-7" d="M345.7,204.04l-5.01,.43c-.23,.02-.51-.14-.73-.42l-5.01-6.21"/><line class="cls-7" x1="340.33" y1="204.37" x2="340.33" y2="211.62"/><path class="cls-11" d="M354.25,192.1l1.45-.12c.26-.02,.6,.13,.77,.33l5.09,6.44c.16,.2,.29,.58,.29,.85v6.17c0,.26-.21,.49-.47,.51l-4.9,.42"/><path class="cls-7" d="M361.85,199.12l-5.01,.43c-.23,.02-.51-.14-.73-.42l-5.01-6.21"/><line class="cls-7" x1="356.47" y1="199.45" x2="356.47" y2="206.7"/><path class="cls-11" d="M356.47,206.7l5.08,6.29c.16,.2,.3,.58,.3,.84v6.17c0,.26-.21,.49-.47,.51l-4.9,.42"/><path class="cls-7" d="M361.85,213.36l-5.01,.43c-.23,.02-.51-.14-.73-.42l-5.01-6.21"/><line class="cls-7" x1="356.47" y1="213.69" x2="356.47" y2="220.94"/><path class="cls-11" d="M343.02,200.68v-6.55c0-.26,.21-.49,.47-.51l4.43-.38c.26-.02,.61,.13,.77,.33l4.78,5.93c.16,.2,.3,.58,.3,.84v6.55"/><path class="cls-7" d="M353.76,199.86l-5.01,.43c-.23,.02-.51-.14-.73-.42l-5.01-6.21"/><line class="cls-7" x1="348.39" y1="200.19" x2="348.39" y2="207.44"/><path class="cls-11" d="M343.02,215.02l5.08,6.29c.16,.2,.51,.35,.77,.33l4.9-.42"/><path class="cls-7" d="M353.76,214.1l-5.01,.43c-.23,.02-.51-.14-.73-.42l-5.01-6.21"/><line class="cls-7" x1="348.39" y1="214.43" x2="348.39" y2="221.68"/><line class="cls-11" x1="343.02" y1="197.15" x2="340.33" y2="197.38"/><line class="cls-11" x1="356.47" y1="206.7" x2="353.76" y2="203.36"/><line class="cls-11" x1="345.7" y1="189.8" x2="345.7" y2="193.36"/><line class="cls-11" x1="351.1" y1="196.5" x2="351.1" y2="192.92"/><line class="cls-11" x1="351.1" y1="210.8" x2="351.1" y2="207.16"/><line class="cls-11" x1="345.7" y1="204.13" x2="345.7" y2="207.67"/><path class="cls-7" d="M340.33,197.38l13.14,16.35c.16,.2,.3,.58,.3,.84v6.65"/><path class="cls-11" d="M343.02,215.02v-6.65c0-.26,.21-.49,.47-.52l12.99-1.15"/><line class="cls-11" x1="351.1" y1="192.92" x2="356.47" y2="192.46"/><line class="cls-11" x1="340.33" y1="183.14" x2="345.7" y2="189.8"/><line class="cls-7" x1="353.79" y1="217.61" x2="356.47" y2="220.94"/></g></svg>